#!OML:ASF F:\VICON\USERDATA\INSTALL\rory3\rory3.ASF
:FULLY-SPECIFIED
:DEGREES
144
root 0.00657418 14.8122 -2.4132 -0.200036 0.830595 3.7004
lowerback 30.6095 -0.0296215 -2.98677
upperback 6.36588 -1.00207 -0.411293
thorax -9.57655 -0.392992 1.64006
lowerneck -18.1016 -1.46202 -6.75161
upperneck -17.3655 -0.18493 7.18263
head -2.36927 0.215751 3.35635
rclavicle -7.20594e-015 -5.26779e-015
rhumerus 4.52318 2.84783 -69.5872
rradius 73.8154
rwrist 1.05853
rhand -37.2533 2.84752
rfingers 7.12502
rthumb -10.319 -26.8793
lclavicle -7.20594e-015 -5.26779e-015
lhumerus 7.83038 0.302063 65.3654
lradius 82.8524
lwrist 18.0348
lhand -35.8556 23.0761
lfingers 7.12502
lthumb -8.9705 52.8654
rfemur -47.5347 -5.04437 15.9333
rtibia 95.5793
rfoot -32.0529 -9.89759
rtoes -18.0776
lfemur -45.1194 7.4426 -22.527
ltibia 90.3184
lfoot -30.3067 -2.89891
ltoes -9.69066
145
root 0.00474704 14.9833 -2.40055 -0.393696 0.921264 3.72785
lowerback 30.339 0.0119926 -2.86659
upperback 6.30909 -0.905024 -0.421433
thorax -9.5175 -0.351449 1.51983
lowerneck -18.0453 -1.45366 -6.89935
upperneck -17.2704 -0.128249 7.437
head -2.3469 0.250495 3.46211
rclavicle 1.61016e-014 0
rhumerus 5.47458 2.35257 -67.6487
rradius 76.1707
rwrist 2.59198
rhand -36.9782 3.31897
rfingers 7.12502
rthumb -10.0536 -26.4209
lclavicle 1.61016e-014 0
lhumerus 9.65804 1.23145 63.4957
lradius 84.6655
lwrist 17.7081
lhand -35.7379 23.3058
lfingers 7.12502
lthumb -8.85685 53.0999
rfemur -46.0475 -4.77976 15.8264
rtibia 93.5911
rfoot -31.8772 -9.87268
rtoes -17.9941
lfemur -43.8246 7.17298 -22.5937
ltibia 88.4949
lfoot -29.7913 -2.50924
ltoes -9.65562
146
root 0.00343375 15.1648 -2.38227 -0.537499 0.985756 3.54933
lowerback 29.9987 -0.000196333 -2.52958
upperback 6.17059 -0.809451 -0.418206
thorax -9.52051 -0.314277 1.29029
lowerneck -17.9349 -1.376 -6.808
upperneck -16.9583 -0.0493572 7.49487
head -2.27069 0.283573 3.46382
rclavicle -2.28602e-015 1.09332e-014
rhumerus 6.26098 1.81259 -65.6872
rradius 78.3806
rwrist 4.15623
rhand -36.556 3.53132
rfingers 7.12502
rthumb -9.6463 -26.2278
lclavicle -2.28602e-015 1.09332e-014
lhumerus 10.9997 1.9533 61.0112
lradius 86.323
lwrist 17.8966
lhand -36.2347 23.9604
lfingers 7.12502
lthumb -9.33625 53.7336
rfemur -44.539 -4.51289 15.9702
rtibia 91.4334
rfoot -31.5726 -9.9017
rtoes -18.0753
lfemur -42.5362 6.97027 -22.3829
ltibia 86.5571
lfoot -29.1122 -2.4894
ltoes -8.64743
147
root 0.00315914 15.3613 -2.3566 -0.724405 0.934157 3.26199
lowerback 29.6746 -0.00937145 -2.09003
upperback 6.00326 -0.681403 -0.403597
thorax -9.56441 -0.26438 1.00343
lowerneck -17.8296 -1.23035 -6.56271
upperneck -16.6214 0.0768537 7.35848
head -2.19298 0.333911 3.38
rclavicle -1.07344e-014 5.36719e-015
rhumerus 6.98017 1.22269 -63.7134
rradius 80.3949
rwrist 5.87769
rhand -36.156 3.09808
rfingers 7.12502
rthumb -9.26037 -26.6786
lclavicle -1.07344e-014 5.36719e-015
lhumerus 12.2407 2.90994 58.4173
lradius 87.671
lwrist 17.9122
lhand -36.71 24.2717
lfingers 7.12502
lthumb -9.7949 54.0239
rfemur -42.8991 -4.10098 16.2396
rtibia 89.0747
rfoot -31.0916 -9.83484
rtoes -17.5603
lfemur -41.1065 6.94624 -22.0179
ltibia 84.4221
lfoot -28.2791 -2.40823
ltoes -8.3411
148
root 0.00321374 15.5776 -2.318 -1.02051 0.746114 3.16373
lowerback 29.2568 0.0788492 -1.90722
upperback 5.92268 -0.507045 -0.407307
thorax -9.45807 -0.189312 0.827469
lowerneck -17.572 -1.0764 -6.22917
upperneck -16.5444 0.185156 7.02509
head -2.21686 0.369015 3.22123
rclavicle -8.94531e-016 -2.18663e-015
rhumerus 7.80236 0.5039 -61.7582
rradius 82.1462
rwrist 7.52385
rhand -35.8472 2.49377
rfingers 7.12502
rthumb -8.96241 -27.2959
lclavicle -8.94531e-016 -2.18663e-015
lhumerus 13.4521 4.23073 56.0495
lradius 88.6381
lwrist 17.9955
lhand -37.0825 24.3797
lfingers 7.12502
lthumb -10.1542 54.1147
rfemur -41.0012 -3.61287 16.2694
rtibia 86.5353
rfoot -30.5085 -9.64271
rtoes -16.9454
lfemur -39.3398 6.99462 -21.8388
ltibia 82.0258
lfoot -27.4079 -2.16812
ltoes -8.69307
149
root 0.00335922 15.8228 -2.25978 -1.6594 0.294511 3.44548
lowerback 29.0467 0.34749 -2.25516
upperback 5.91018 -0.268038 -0.438299
thorax -9.37241 -0.0711995 0.906692
lowerneck -17.2323 -0.931701 -6.00825
upperneck -16.2495 0.256901 6.52189
head -2.46071 0.407897 3.25898
rclavicle -8.44835e-015 8.54774e-015
rhumerus 8.5833 -0.211995 -59.7923
rradius 83.5803
rwrist 8.55662
rhand -35.8982 3.16701
rfingers 7.12502
rthumb -9.0116 -26.6205
lclavicle -8.44835e-015 8.54774e-015
lhumerus 14.1409 5.79723 53.8137
lradius 89.1191
lwrist 18.3858
lhand -37.2466 24.2613
lfingers 7.12502
lthumb -10.3126 53.9885
rfemur -38.5437 -2.94646 15.8505
rtibia 83.7794
rfoot -29.8117 -9.4233
rtoes -16.6934
lfemur -36.7922 7.24727 -22.0039
ltibia 79.2662
lfoot -26.5185 -1.77907
ltoes -9.94544
150
root 0.000768013 16.0806 -2.19943 -2.18423 -0.179847 3.76861
lowerback 28.7958 0.626739 -2.6776
upperback 5.78448 -0.0364059 -0.470435
thorax -9.39683 0.0475397 1.03118
lowerneck -16.9506 -0.81628 -5.99024
upperneck -15.8496 0.374259 6.46204
head -2.37106 0.461143 3.23245
rclavicle 1.08338e-014 -2.18663e-015
rhumerus 9.12936 -0.811669 -57.8337
rradius 84.7512
rwrist 8.77137
rhand -36.4346 4.17512
rfingers 7.12502
rthumb -9.52912 -25.5894
lclavicle 1.08338e-014 -2.18663e-015
lhumerus 14.5541 7.38939 51.4497
lradius 89.2457
lwrist 18.8802
lhand -36.8953 23.8617
lfingers 7.12502
lthumb -9.97363 53.6054
rfemur -36.2067 -2.27996 15.416
rtibia 80.9166
rfoot -28.8933 -9.15355
rtoes -16.2651
lfemur -34.3284 7.5162 -22.2017
ltibia 76.3274
lfoot -25.1514 -1.20804
ltoes -11.7187
151
root 0.000656885 16.345 -2.13636 -2.40751 -0.656396 3.91255
lowerback 28.2506 0.852018 -2.89581
upperback 5.53578 0.204168 -0.435233
thorax -9.41696 0.167571 1.11137
lowerneck -16.7208 -0.755616 -6.18539
upperneck -15.1834 0.45295 6.53676
head -2.17986 0.505854 3.29022
rclavicle 1.2921e-015 -6.36111e-015
rhumerus 9.39485 -1.4152 -55.9054
rradius 85.8443
rwrist 8.63976
rhand -36.7512 4.51772
rfingers 7.12502
rthumb -9.83464 -25.2326
lclavicle 1.2921e-015 -6.36111e-015
lhumerus 14.8226 8.75868 48.8493
lradius 89.1618
lwrist 19.6242
lhand -36.8025 23.9158
lfingers 7.12502
lthumb -9.88413 53.6638
rfemur -34.2186 -1.664 15.1971
rtibia 77.9253
rfoot -27.7265 -8.85748
rtoes -15.9597
lfemur -32.2021 7.77304 -22.2595
ltibia 73.2706
lfoot -23.6587 -1.01181
ltoes -11.3068
152
root 0.00383483 16.6002 -2.06841 -2.30551 -0.923647 4.07793
lowerback 27.1991 0.923085 -3.03962
upperback 5.28795 0.289639 -0.419627
thorax -9.17294 0.210578 1.18457
lowerneck -16.4702 -0.725813 -6.29872
upperneck -14.6323 0.472183 6.5236
head -2.02894 0.515648 3.30088
rclavicle -4.96962e-015 2.5842e-015
rhumerus 9.64873 -2.14673 -54.1433
rradius 86.6717
rwrist 8.57284
rhand -36.7219 4.68997
rfingers 7.12502
rthumb -9.80635 -25.0617
lclavicle -4.96962e-015 2.5842e-015
lhumerus 15.1116 10.2574 46.354
lradius 88.7258
lwrist 20.367
lhand -36.9121 24.1552
lfingers 7.12502
lthumb -9.98986 53.8981
rfemur -32.5839 -1.30478 14.9255
rtibia 74.9121
rfoot -26.4054 -8.38475
rtoes -14.921
lfemur -30.4383 7.78034 -22.4111
ltibia 70.1777
lfoot -22.2839 -1.61233
ltoes -8.25163
153
root 0.00633175 16.8877 -1.99693 -2.08345 -1.02998 4.03345
lowerback 26.0164 0.831713 -2.91689
upperback 5.03851 0.249482 -0.375451
thorax -8.85136 0.187344 1.17969
lowerneck -16.1826 -0.727834 -6.37449
upperneck -14.2141 0.44447 6.50726
head -1.92774 0.498795 3.30327
rclavicle -7.95139e-015 3.97569e-016
rhumerus 10.0696 -2.68826 -52.4423
rradius 87.0529
rwrist 8.02492
rhand -37.1085 4.57535
rfingers 7.12502
rthumb -10.1793 -25.1584
lclavicle -7.95139e-015 3.97569e-016
lhumerus 15.4808 12.1144 44.3852
lradius 87.9848
lwrist 20.6913
lhand -36.5459 24.0225
lfingers 7.12502
lthumb -9.63651 53.7821
rfemur -30.8368 -0.967175 14.9242
rtibia 71.5946
rfoot -24.8502 -8.05148
rtoes -13.7994
lfemur -28.6934 7.60163 -22.336
ltibia 66.8361
lfoot -20.419 -2.00793
ltoes -6.56035
154
root 0.00887221 17.1995 -1.91538 -1.94415 -1.17962 3.86628
lowerback 24.9029 0.699814 -2.64361
upperback 4.7964 0.188583 -0.339131
thorax -8.54827 0.150511 1.08472
lowerneck -16.2071 -0.760167 -6.57367
upperneck -13.4463 0.40986 6.66271
head -1.65746 0.487921 3.38851
rclavicle -1.53064e-014 1.59028e-015
rhumerus 10.5244 -3.03694 -50.8847
rradius 87.1635
rwrist 7.09918
rhand -37.6498 4.19686
rfingers 7.12502
rthumb -10.7015 -25.5106
lclavicle -1.53064e-014 1.59028e-015
lhumerus 15.6291 13.9033 42.4695
lradius 87.2025
lwrist 21.0649
lhand -35.9024 24.2183
lfingers 7.12502
lthumb -9.01565 54.0056
rfemur -28.8296 -0.487149 15.0834
rtibia 68.007
rfoot -22.9778 -7.95342
rtoes -13.354
lfemur -26.7366 7.4395 -22.093
ltibia 63.2408
lfoot -18.2235 -1.79826
ltoes -8.66628
155
root 0.0096679 17.537 -1.82167 -1.91742 -1.34836 3.89985
lowerback 23.9266 0.603437 -2.57582
upperback 4.49963 0.103188 -0.3805
thorax -8.36954 0.108168 1.02776
lowerneck -16.3062 -0.785728 -6.66375
upperneck -12.4639 0.359746 6.76498
head -1.30152 0.465089 3.43372
rclavicle 1.68967e-015 3.57812e-015
rhumerus 10.6271 -3.37423 -49.6607
rradius 87.3479
rwrist 6.40688
rhand -38.1598 3.75181
rfingers 7.12502
rthumb -11.1934 -25.9296
lclavicle 1.68967e-015 3.57812e-015
lhumerus 15.2932 15.2837 40.3876
lradius 86.4009
lwrist 21.2241
lhand -35.3392 24.9897
lfingers 7.12502
lthumb -8.47211 54.7997
rfemur -26.5562 0.0627955 14.9894
rtibia 64.1035
rfoot -20.6967 -7.95914
rtoes -13.4485
lfemur -24.4094 7.19859 -22.0453
ltibia 59.2794
lfoot -15.8535 -1.46641
ltoes -11.6931
156
root 0.00324119 17.8915 -1.7188 -1.8176 -1.52619 4.0052
lowerback 22.8299 0.548586 -2.69157
upperback 4.1639 0.0299983 -0.419225
thorax -8.16506 0.0760895 1.0738
lowerneck -16.2772 -0.79977 -6.72685
upperneck -11.5471 0.312589 6.81101
head -0.990943 0.44072 3.45589
rclavicle -1.59028e-014 -7.95139e-016
rhumerus 10.3492 -3.76011 -48.6854
rradius 87.729
rwrist 5.9015
rhand -38.5056 3.28918
rfingers 7.12502
rthumb -11.5269 -26.3739
lclavicle -1.59028e-014 -7.95139e-016
lhumerus 14.4995 16.3092 38.3319
lradius 85.6112
lwrist 20.8249
lhand -35.0962 25.634
lfingers 7.12502
lthumb -8.23763 55.4534
rfemur -24.2623 0.798486 14.8289
rtibia 59.9596
rfoot -17.9908 -8.04444
rtoes -13.4723
lfemur -22.0195 6.87601 -22.0553
ltibia 55.015
lfoot -13.0482 -1.1269
ltoes -13.4569
157
root -0.00840172 18.2581 -1.60445 -1.66855 -1.76409 3.99633
lowerback 21.5808 0.561391 -2.80289
upperback 3.83538 0.060158 -0.388094
thorax -7.86851 0.0927451 1.16295
lowerneck -16.2971 -0.796908 -6.89518
upperneck -10.6532 0.311652 6.91657
head -0.685299 0.445121 3.52452
rclavicle -9.93923e-015 -6.36111e-015
rhumerus 9.72959 -4.21632 -47.7165
rradius 88.1162
rwrist 5.53247
rhand -38.608 3.32171
rfingers 7.12502
rthumb -11.6256 -26.3358
lclavicle -9.93923e-015 -6.36111e-015
lhumerus 13.4002 16.983 36.3765
lradius 84.9786
lwrist 20.549
lhand -34.9663 25.7087
lfingers 7.12502
lthumb -8.11228 55.533
rfemur -21.8798 1.81109 14.8113
rtibia 55.5734
rfoot -14.9114 -8.27733
rtoes -13.5929
lfemur -19.5564 6.44465 -21.9182
ltibia 50.4732
lfoot -9.87295 -0.747136
ltoes -14.3488
158
root -0.0173153 18.6387 -1.4861 -1.48047 -1.95523 3.94667
lowerback 20.322 0.568215 -2.82803
upperback 3.47665 0.105087 -0.340051
thorax -7.5924 0.115323 1.21759
lowerneck -16.2957 -0.77935 -7.0446
upperneck -9.81959 0.325739 6.94381
head -0.405548 0.455229 3.56441
rclavicle -6.06293e-015 -6.36111e-015
rhumerus 8.67365 -4.63099 -46.661
rradius 88.3565
rwrist 5.58241
rhand -38.8061 3.89938
rfingers 7.12502
rthumb -11.8167 -25.7472
lclavicle -6.06293e-015 -6.36111e-015
lhumerus 12.0247 17.3244 34.447
lradius 84.5527
lwrist 20.8826
lhand -35.1053 26.0998
lfingers 7.12502
lthumb -8.24641 55.9188
rfemur -19.4202 2.96719 14.8153
rtibia 50.9635
rfoot -11.3751 -8.67694
rtoes -13.5623
lfemur -17.0676 5.73742 -21.7643
ltibia 45.7203
lfoot -6.02209 -0.0215531
ltoes -15.5952
